When Rock Goes Acoustic. BBC 2011 832x468 x264 aac mp4 w/subtitles [aularon]


- - -
Synopsis
- - -
The cliché of classic rock guitar is one of riffs, solos and noise. But write a list of great guitarists and their finest moments and a quieter, more intense playing comes to the fore. The acoustic guitar is the secret weapon in the armoury of the guitar hero, when paradoxically they get more attention by playing quietly than being loud.

This documentary takes an insightful and occasionally irreverent look at the love affair between rock and the humble acoustic guitar. Exploring a much less celebrated, yet crucial part of the rock musician's arsenal, contributors including Johnny Marr, Keith Richards, Ray Davies, James Dean Bradfield, Biffy Clyro, Joan Armatrading, Donovan and Roger McGuinn discuss why an instrument favoured by medieval minstrels and singing nuns is as important to rock 'n' roll as the drums, bass and its noisy sister, the electric guitar.


- - -
URL
- - -       
http://www.bbc.co.uk/programmes/b0141myx


- - -
Technical Details
- - -
General
Complete name                    : BBC.When.Rock.Goes.Acoustic/When_Rock_Goes_Acoustic_-_When_Rock_Goes_Acoustic_b0141myx_default.mp4
Format                           : MPEG-4
Format profile                   : Base Media
Codec ID                         : isom
File size                        : 631 MiB
Duration                         : 58mn 44s
Overall bit rate                 : 1 502 Kbps
Movie name                       : When Rock Goes Acoustic
Album                            : When Rock Goes Acoustic
Performer                        : When Rock Goes Acoustic
Genre                            : Factual,Arts, Culture & the Media,Music,Classic Pop & Rock
Recorded date                    : 2011-09-02T21:00:00+01:00
Tagged date                      : UTC 2011-09-02 22:41:56
Writing application              : Lavf53.10.0
Cover                            : Yes
Comment                          : Recorded using get_iplayer, by Aularon.
rtng                             : 4
stik                             : 1
desc                             : Documentary taking an insightful and irreverent look at the love affair between rock and the acoustic guitar. Contributors include Johnny Marr, Keith Richards and Ray Davies.
tvnn                             : BBC Four
tvsh                             : When Rock Goes Acoustic
tven                             : b0141myx
catg                             : Factual,Arts, Culture & the Media,Music,Classic Pop & Rock

Video
ID                               : 1
Format                           : AVC
Format/Info                      : Advanced Video Codec
Format profile                   : Main@L3.0
Format settings, CABAC           : Yes
Format settings, ReFrames        : 4 frames
Format settings, GOP             : M=3, N=54
Codec ID                         : avc1
Codec ID/Info                    : Advanced Video Coding
Duration                         : 58mn 44s
Bit rate mode                    : Constant
Bit rate                         : 1 404 Kbps
Width                            : 832 pixels
Height                           : 468 pixels
Display aspect ratio             : 16:9
Frame rate mode                  : Constant
Frame rate                       : 25.000 fps
Standard                         : PAL
Color space                      : YUV
Chroma subsampling               : 4:2:0
Bit depth                        : 8 bits
Scan type                        : Progressive
Bits/(Pixel*Frame)               : 0.144
Stream size                      : 589 MiB (93%)

Audio
ID                               : 2
Format                           : AAC
Format/Info                      : Advanced Audio Codec
Format profile                   : HE-AAC / LC
Codec ID                         : 40
Duration                         : 58mn 44s
Bit rate mode                    : Constant
Bit rate                         : 96.0 Kbps
Channel(s)                       : 2 channels
Channel positions                : Front: L R
Sampling rate                    : 48.0 KHz / 24.0 KHz
Compression mode                 : Lossy
Stream size                      : 39.8 MiB (6%)


                  ______                                     
                 (____  \                                    
                  ____)  )_____  ____ _____ _   _  ___ _____ 
                 |  __  (| ___ |/ ___|____ | | | |/___) ___ |
            _ _ _| |__)  ) ____( (___/ ___ | |_| |___ | ____|
           (_|_|_)______/|_____)\____)_____|____/(___/|_____)
                                                              
                   ______ _                 _             
                  / _____) |               (_)            
                 ( (____ | |__  _____  ____ _ ____   ____ 
                  \____ \|  _ \(____ |/ ___) |  _ \ / _  |
                  _____) ) | | / ___ | |   | | | | ( (_| |
                 (______/|_| |_\_____|_|   |_|_| |_|\___ |
                                                   (_____|
                                  _      
                                 (_)     
                                  _  ___ 
                                 | |/___)
                                 | |___ |
                                 |_(___/ 

                    _______             _               
                   (_______)           (_)              
                    _       _____  ____ _ ____   ____   
                   | |     (____ |/ ___) |  _ \ / _  |  
                   | |_____/ ___ | |   | | | | ( (_| |_ 
                    \______)_____|_|   |_|_| |_|\___ (_)
                                               (_____|  

                                    ;)

